<svg xmlns="http://www.w3.org/2000/svg" viewBox="0 0 1500 200" fill="currentColor" role="img" aria-label="Touch Grass field — wild blade pattern">
  <title>Touch Grass field</title>
  <path opacity="0.85" d="M1448.28 200 C1447.98 120.04 1448.29 30.09 1448.94 0.1 C1449.59 30.09 1452.31 120.04 1452.61 200 Z"/>
  <path opacity="0.65" d="M805.98 200 C809.68 120.29 825.37 30.6 825.76 0.71 C826.15 30.6 812.26 120.29 808.56 200 Z"/>
  <path opacity="0.85" d="M129.92 200 C127.61 120.3 119.28 30.64 119.66 0.75 C120.04 30.64 130.15 120.3 132.46 200 Z"/>
  <path opacity="0.45" d="M42.22 200 C42.8 120.39 46.12 30.82 46.55 0.97 C46.98 30.82 45.68 120.39 45.1 200 Z"/>
  <path opacity="0.85" d="M441.88 200 C438.96 120.66 428.15 31.4 428.51 1.65 C428.87 31.4 441.39 120.66 444.31 200 Z"/>
  <path opacity="0.65" d="M827.22 200 C828.58 120.75 835.5 31.6 836.13 1.88 C836.76 31.6 832.78 120.75 831.42 200 Z"/>
  <path opacity="0.85" d="M549.09 200 C547.48 121.08 542.57 32.3 543.23 2.71 C543.89 32.3 551.87 121.08 553.48 200 Z"/>
  <path opacity="0.85" d="M599.08 200 C602.46 121.27 616.93 32.69 617.35 3.16 C617.77 32.69 605.24 121.27 601.86 200 Z"/>
  <path opacity="0.65" d="M781.91 200 C782.12 121.43 784.48 33.04 785.14 3.58 C785.8 33.04 786.51 121.43 786.3 200 Z"/>
  <path opacity="0.65" d="M1231.67 200 C1229.1 121.64 1219.68 33.48 1220.06 4.09 C1220.44 33.48 1231.62 121.64 1234.19 200 Z"/>
  <path opacity="0.85" d="M1262.67 200 C1262.28 121.68 1261.72 33.56 1262.15 4.19 C1262.58 33.56 1265.16 121.68 1265.55 200 Z"/>
  <path opacity="0.45" d="M413.67 200 C415.45 121.88 424.65 33.99 425.53 4.69 C426.41 33.99 421.32 121.88 419.54 200 Z"/>
  <path opacity="0.45" d="M1473.37 200 C1475.86 121.97 1487.9 34.19 1488.79 4.93 C1489.68 34.19 1481.78 121.97 1479.29 200 Z"/>
  <path opacity="0.65" d="M65.03 200 C68.71 122.02 84.56 34.28 85.03 5.04 C85.5 34.28 71.86 122.02 68.18 200 Z"/>
  <path opacity="0.45" d="M1481.59 200 C1479.38 122.21 1471.59 34.69 1472.04 5.52 C1472.49 34.69 1482.38 122.21 1484.59 200 Z"/>
  <path d="M599.81 200 C601.94 122.26 611.16 34.8 611.47 5.65 C611.78 34.8 604.01 122.26 601.88 200 Z"/>
  <path d="M44.97 200 C47.06 122.71 57.23 35.75 58.02 6.77 C58.81 35.75 52.3 122.71 50.21 200 Z"/>
  <path opacity="0.45" d="M1387.58 200 C1391.18 122.85 1406.73 36.06 1407.23 7.13 C1407.73 36.06 1394.53 122.85 1390.93 200 Z"/>
  <path opacity="0.45" d="M565.54 200 C561.89 123.1 548.16 36.6 548.53 7.76 C548.9 36.6 564.36 123.1 568.01 200 Z"/>
  <path opacity="0.85" d="M1070.08 200 C1072.74 123.27 1084.94 36.94 1085.6 8.16 C1086.26 36.94 1077.12 123.27 1074.46 200 Z"/>
  <path opacity="0.45" d="M1028.71 200 C1030.86 123.97 1041.48 38.44 1042.34 9.93 C1043.2 38.44 1036.58 123.97 1034.43 200 Z"/>
  <path opacity="0.65" d="M106.72 200 C106.15 124.41 104.79 39.36 105.19 11.01 C105.59 39.36 108.82 124.41 109.39 200 Z"/>
  <path opacity="0.85" d="M1258.98 200 C1260.23 124.61 1266.54 39.81 1267.11 11.54 C1267.68 39.81 1264.04 124.61 1262.79 200 Z"/>
  <path opacity="0.65" d="M336.39 200 C339.41 124.77 352.82 40.13 353.38 11.92 C353.94 40.13 343.15 124.77 340.13 200 Z"/>
  <path d="M1170.53 200 C1167.46 124.88 1156.86 40.38 1157.57 12.21 C1158.28 40.38 1172.22 124.88 1175.29 200 Z"/>
  <path opacity="0.65" d="M1491.33 200 C1490.8 125.03 1490.18 40.69 1490.82 12.58 C1491.46 40.69 1495.05 125.03 1495.58 200 Z"/>
  <path opacity="0.45" d="M737.74 200 C739.37 125.29 747.78 41.24 748.59 13.22 C749.4 41.24 744.8 125.29 743.17 200 Z"/>
  <path opacity="0.85" d="M467.39 200 C464.14 125.71 452.93 42.14 453.7 14.28 C454.47 42.14 469.28 125.71 472.53 200 Z"/>
  <path opacity="0.45" d="M271.05 200 C267.33 126.18 254.42 43.14 255.27 15.46 C256.12 43.14 273 126.18 276.72 200 Z"/>
  <path opacity="0.65" d="M309.79 200 C313.7 126.27 330.33 43.33 330.77 15.68 C331.21 43.33 316.6 126.27 312.69 200 Z"/>
  <path opacity="0.85" d="M1081.77 200 C1081.68 126.54 1083.1 43.91 1083.85 16.36 C1084.6 43.91 1086.69 126.54 1086.78 200 Z"/>
  <path opacity="0.65" d="M350.48 200 C350.52 126.59 352.51 44.01 353.3 16.48 C354.09 44.01 355.77 126.59 355.73 200 Z"/>
  <path d="M936.32 200 C935.08 126.71 932.09 44.26 932.94 16.78 C933.79 44.26 940.72 126.71 941.96 200 Z"/>
  <path d="M783.78 200 C780.48 126.94 769.26 44.76 770.1 17.36 C770.94 44.76 786.08 126.94 789.38 200 Z"/>
  <path opacity="0.85" d="M524.73 200 C526.18 127.3 533.29 45.5 533.86 18.24 C534.43 45.5 529.97 127.3 528.52 200 Z"/>
  <path d="M68.12 200 C68.44 127.51 70.91 45.97 71.42 18.79 C71.93 45.97 71.81 127.51 71.49 200 Z"/>
  <path opacity="0.45" d="M657.74 200 C657.95 127.94 659.68 46.88 660.07 19.86 C660.46 46.88 660.56 127.94 660.35 200 Z"/>
  <path opacity="0.45" d="M1488.31 200 C1489.12 128.45 1494.17 47.96 1494.95 21.13 C1495.73 47.96 1494.34 128.45 1493.53 200 Z"/>
  <path d="M166.56 200 C166.68 128.46 169.22 47.97 170.11 21.14 C171 47.97 172.63 128.46 172.51 200 Z"/>
  <path opacity="0.85" d="M515.84 200 C519.46 128.49 535.89 48.05 536.72 21.23 C537.55 48.05 525 128.49 521.38 200 Z"/>
  <path opacity="0.65" d="M259.68 200 C256.44 128.55 244.23 48.17 244.55 21.38 C244.87 48.17 258.58 128.55 261.82 200 Z"/>
  <path d="M899.76 200 C901.12 128.85 907.87 48.81 908.44 22.13 C909.01 48.81 904.91 128.85 903.55 200 Z"/>
  <path opacity="0.85" d="M937.07 200 C937.71 128.94 941.8 49 942.45 22.35 C943.1 49 942.07 128.94 941.43 200 Z"/>
  <path opacity="0.65" d="M1189.44 200 C1187.25 129.16 1179.21 49.46 1179.52 22.89 C1179.83 49.46 1189.31 129.16 1191.5 200 Z"/>
  <path d="M838.39 200 C842.22 129.65 858.98 50.5 859.6 24.12 C860.22 50.5 846.32 129.65 842.49 200 Z"/>
  <path d="M560.38 200 C561.85 129.73 569.57 50.67 570.37 24.32 C571.17 50.67 567.16 129.73 565.69 200 Z"/>
  <path opacity="0.65" d="M1050.35 200 C1051.91 129.74 1059.99 50.7 1060.77 24.35 C1061.55 50.7 1057.12 129.74 1055.56 200 Z"/>
  <path opacity="0.65" d="M1221.7 200 C1224.52 129.78 1237.4 50.78 1238.08 24.45 C1238.76 50.78 1229.05 129.78 1226.23 200 Z"/>
  <path opacity="0.65" d="M1381.6 200 C1385.42 129.83 1401.63 50.88 1402.04 24.57 C1402.45 50.88 1388.12 129.83 1384.3 200 Z"/>
  <path d="M437.73 200 C441.44 129.84 457.13 50.9 457.49 24.59 C457.85 50.9 443.82 129.84 440.11 200 Z"/>
  <path d="M1178.61 200 C1178.1 130.08 1176.83 51.41 1177.17 25.19 C1177.51 51.41 1180.37 130.08 1180.88 200 Z"/>
  <path d="M1328.98 200 C1325.49 130.12 1312.79 51.5 1313.33 25.3 C1313.87 51.5 1329.09 130.12 1332.58 200 Z"/>
  <path opacity="0.85" d="M63.04 200 C64.34 130.55 70.82 52.42 71.38 26.38 C71.94 52.42 68.06 130.55 66.76 200 Z"/>
  <path opacity="0.45" d="M234.41 200 C233.11 130.68 229.38 52.69 230.02 26.69 C230.66 52.69 237.36 130.68 238.66 200 Z"/>
  <path d="M921.96 200 C918.63 131.04 906.69 53.47 907.27 27.61 C907.85 53.47 922.5 131.04 925.83 200 Z"/>
  <path opacity="0.65" d="M1142.47 200 C1138.9 131.4 1126.24 54.22 1126.93 28.49 C1127.62 54.22 1143.53 131.4 1147.1 200 Z"/>
  <path opacity="0.85" d="M1025.33 200 C1023.83 131.4 1019.31 54.23 1019.95 28.51 C1020.59 54.23 1028.11 131.4 1029.61 200 Z"/>
  <path d="M406.77 200 C406.47 131.61 406.31 54.66 406.75 29.01 C407.19 54.66 409.42 131.61 409.72 200 Z"/>
  <path opacity="0.65" d="M404.36 200 C403.11 132.1 399.5 55.71 400.1 30.25 C400.7 55.71 407.08 132.1 408.33 200 Z"/>
  <path d="M619.28 200 C620.64 132.19 626.93 55.9 627.29 30.47 C627.65 55.9 623.05 132.19 621.69 200 Z"/>
  <path d="M850.71 200 C852.99 132.39 863.81 56.32 864.54 30.96 C865.27 56.32 857.86 132.39 855.58 200 Z"/>
  <path d="M0.68 200 C0.87 132.71 3.46 57.02 4.26 31.79 C5.06 57.02 6.17 132.71 5.98 200 Z"/>
  <path d="M91.3 200 C91.54 132.99 93.48 57.6 93.89 32.47 C94.3 57.6 94.28 132.99 94.04 200 Z"/>
  <path opacity="0.65" d="M1447.49 200 C1445.96 134.01 1441.92 59.77 1442.81 35.02 C1443.7 59.77 1451.9 134.01 1453.43 200 Z"/>
  <path opacity="0.45" d="M949.42 200 C951.41 134.36 961.46 60.52 962.36 35.9 C963.26 60.52 957.41 134.36 955.42 200 Z"/>
  <path opacity="0.45" d="M752.55 200 C750.5 134.44 744.13 60.68 744.92 36.09 C745.71 60.68 755.76 134.44 757.81 200 Z"/>
  <path opacity="0.65" d="M522.94 200 C526.42 134.57 541.48 60.96 541.96 36.43 C542.44 60.96 529.62 134.57 526.14 200 Z"/>
  <path d="M313.32 200 C310.25 134.72 299.26 61.28 299.8 36.8 C300.34 61.28 313.87 134.72 316.94 200 Z"/>
  <path opacity="0.45" d="M138.99 200 C140.28 134.99 147.49 61.86 148.37 37.48 C149.25 61.86 146.15 134.99 144.86 200 Z"/>
  <path d="M372.12 200 C370.58 135.26 366.34 62.42 367.17 38.14 C368 62.42 376.11 135.26 377.65 200 Z"/>
  <path d="M1286.54 200 C1282.97 135.38 1270.56 62.69 1271.37 38.46 C1272.18 62.69 1288.34 135.38 1291.91 200 Z"/>
  <path d="M517.14 200 C518.36 135.44 524.23 62.82 524.65 38.61 C525.07 62.82 521.16 135.44 519.94 200 Z"/>
  <path opacity="0.85" d="M1170 200 C1171.33 135.62 1178.57 63.18 1179.39 39.04 C1180.21 63.18 1176.82 135.62 1175.49 200 Z"/>
  <path opacity="0.65" d="M611.74 200 C607.87 135.63 594.18 63.22 594.96 39.08 C595.74 63.22 613.04 135.63 616.91 200 Z"/>
  <path opacity="0.45" d="M426.8 200 C428.67 136.19 437.71 64.4 438.38 40.47 C439.05 64.4 433.16 136.19 431.29 200 Z"/>
  <path opacity="0.85" d="M50.66 200 C52.39 136.3 60.29 64.63 60.7 40.74 C61.11 64.63 55.15 136.3 53.42 200 Z"/>
  <path opacity="0.85" d="M273.11 200 C276.56 136.45 291.57 64.96 292.09 41.13 C292.61 64.96 280.04 136.45 276.59 200 Z"/>
  <path d="M232.46 200 C228.86 136.52 215.71 65.11 216.23 41.31 C216.75 65.11 232.36 136.52 235.96 200 Z"/>
  <path opacity="0.85" d="M1348.18 200 C1351.66 136.82 1366.38 65.75 1366.73 42.06 C1367.08 65.75 1353.97 136.82 1350.49 200 Z"/>
  <path opacity="0.45" d="M1451.5 200 C1454.37 136.99 1467.2 66.11 1467.79 42.48 C1468.38 66.11 1458.29 136.99 1455.42 200 Z"/>
  <path opacity="0.45" d="M720.54 200 C723.84 137.28 738.28 66.71 738.81 43.19 C739.34 66.71 727.36 137.28 724.06 200 Z"/>
  <path opacity="0.85" d="M309.66 200 C306.9 137.45 296.62 67.08 296.94 43.62 C297.26 67.08 309.02 137.45 311.78 200 Z"/>
  <path opacity="0.65" d="M864.75 200 C860.78 137.5 845.62 67.2 845.93 43.76 C846.24 67.2 862.84 137.5 866.81 200 Z"/>
  <path opacity="0.85" d="M1378.4 200 C1378.69 137.8 1381.1 67.83 1381.63 44.51 C1382.16 67.83 1382.25 137.8 1381.96 200 Z"/>
  <path opacity="0.45" d="M47.68 200 C45.84 138 39.54 68.25 40 45 C40.46 68.25 48.92 138 50.76 200 Z"/>
  <path opacity="0.65" d="M62.58 200 C59.67 138.02 49.39 68.28 49.97 45.04 C50.55 68.28 63.51 138.02 66.42 200 Z"/>
  <path opacity="0.45" d="M671.96 200 C675.91 138.3 693.59 68.88 694.4 45.74 C695.21 68.88 681.28 138.3 677.33 200 Z"/>
  <path opacity="0.85" d="M924.06 200 C921.27 138.51 912.01 69.33 912.83 46.27 C913.65 69.33 926.74 138.51 929.53 200 Z"/>
  <path opacity="0.45" d="M185.33 200 C187.67 138.65 198.02 69.64 198.43 46.63 C198.84 69.64 190.43 138.65 188.09 200 Z"/>
  <path opacity="0.65" d="M1123.28 200 C1123.71 138.76 1126.92 69.87 1127.55 46.91 C1128.18 69.87 1127.91 138.76 1127.48 200 Z"/>
  <path opacity="0.85" d="M649.78 200 C648.97 138.83 647.01 70.02 647.56 47.08 C648.11 70.02 652.64 138.83 653.45 200 Z"/>
  <path opacity="0.65" d="M988.51 200 C990.99 138.97 1001.93 70.32 1002.36 47.43 C1002.79 70.32 993.86 138.97 991.38 200 Z"/>
  <path opacity="0.65" d="M1412.24 200 C1413.98 139.08 1423.04 70.55 1423.93 47.71 C1424.82 70.55 1419.94 139.08 1418.2 200 Z"/>
  <path opacity="0.45" d="M109.72 200 C111.26 139.15 119.07 70.7 119.77 47.88 C120.47 70.7 115.9 139.15 114.36 200 Z"/>
  <path d="M615.15 200 C613.98 139.23 610.43 70.86 610.91 48.07 C611.39 70.86 617.15 139.23 618.32 200 Z"/>
  <path opacity="0.85" d="M733.98 200 C736.19 139.25 746.96 70.9 747.78 48.12 C748.6 70.9 741.69 139.25 739.48 200 Z"/>
  <path opacity="0.45" d="M251.94 200 C254.03 139.4 263.78 71.22 264.38 48.5 C264.98 71.22 258.06 139.4 255.97 200 Z"/>
  <path opacity="0.45" d="M1107.42 200 C1105.19 139.4 1097.26 71.22 1097.69 48.5 C1098.12 71.22 1108.03 139.4 1110.26 200 Z"/>
  <path opacity="0.45" d="M216.14 200 C213.79 139.52 205.88 71.49 206.51 48.81 C207.14 71.49 218 139.52 220.35 200 Z"/>
  <path opacity="0.45" d="M754.87 200 C751.39 140.05 738.22 72.6 738.54 50.12 C738.86 72.6 753.55 140.05 757.03 200 Z"/>
  <path opacity="0.85" d="M619.75 200 C618.88 140.11 616.31 72.74 616.7 50.28 C617.09 72.74 621.5 140.11 622.37 200 Z"/>
  <path opacity="0.45" d="M1017.28 200 C1014.6 140.15 1005.59 72.82 1006.33 50.37 C1007.07 72.82 1019.5 140.15 1022.18 200 Z"/>
  <path opacity="0.85" d="M428.53 200 C426.51 140.32 420.51 73.17 421.41 50.79 C422.31 73.17 432.5 140.32 434.52 200 Z"/>
  <path opacity="0.65" d="M360.68 200 C361.5 140.41 365.68 73.37 366.06 51.02 C366.44 73.37 364.04 140.41 363.22 200 Z"/>
  <path d="M813.56 200 C814.28 140.52 818.73 73.6 819.39 51.29 C820.05 73.6 818.68 140.52 817.96 200 Z"/>
  <path opacity="0.45" d="M1106.56 200 C1108.41 140.83 1117.15 74.27 1117.73 52.08 C1118.31 74.27 1112.28 140.83 1110.43 200 Z"/>
  <path opacity="0.45" d="M931.39 200 C934.41 141.09 948.12 74.82 948.81 52.73 C949.5 74.82 939.01 141.09 935.99 200 Z"/>
  <path opacity="0.85" d="M677.82 200 C678.55 141.43 682.64 75.54 683.14 53.58 C683.64 75.54 681.9 141.43 681.17 200 Z"/>
  <path d="M988.72 200 C986.08 141.74 976.71 76.2 977.23 54.35 C977.75 76.2 989.53 141.74 992.17 200 Z"/>
  <path opacity="0.45" d="M11.81 200 C14.82 141.88 28.59 76.5 29.33 54.71 C30.07 76.5 19.77 141.88 16.76 200 Z"/>
  <path opacity="0.85" d="M569.32 200 C567.84 142.13 563.8 77.02 564.61 55.32 C565.42 77.02 573.21 142.13 574.69 200 Z"/>
  <path opacity="0.85" d="M502.48 200 C505.58 142.27 518.95 77.31 519.37 55.66 C519.79 77.31 508.41 142.27 505.31 200 Z"/>
  <path opacity="0.85" d="M788.34 200 C791.26 142.52 804.05 77.85 804.51 56.29 C804.97 77.85 794.36 142.52 791.44 200 Z"/>
  <path opacity="0.45" d="M1321.4 200 C1320.74 142.56 1319.76 77.95 1320.47 56.41 C1321.18 77.95 1325.48 142.56 1326.14 200 Z"/>
  <path opacity="0.65" d="M518.6 200 C519.42 142.66 523.57 78.16 523.95 56.66 C524.33 78.16 521.95 142.66 521.13 200 Z"/>
  <path d="M738.64 200 C737.75 142.68 736.06 78.2 736.85 56.71 C737.64 78.2 743.04 142.68 743.93 200 Z"/>
  <path opacity="0.85" d="M321.23 200 C319.95 142.76 315.92 78.37 316.39 56.9 C316.86 78.37 323.06 142.76 324.34 200 Z"/>
  <path d="M861.53 200 C864.54 142.82 877.36 78.5 877.7 57.06 C878.04 78.5 866.8 142.82 863.79 200 Z"/>
  <path opacity="0.45" d="M259.02 200 C261.04 143.28 270.73 79.46 271.43 58.19 C272.13 79.46 265.69 143.28 263.67 200 Z"/>
  <path opacity="0.85" d="M748.72 200 C744.75 143.36 730.54 79.65 731.25 58.41 C731.96 79.65 749.5 143.36 753.47 200 Z"/>
  <path opacity="0.65" d="M1020.73 200 C1023.55 143.39 1036.28 79.71 1036.91 58.48 C1037.54 79.71 1027.77 143.39 1024.95 200 Z"/>
  <path opacity="0.85" d="M344.15 200 C344.62 143.47 348.05 79.87 348.71 58.67 C349.37 79.87 349.05 143.47 348.58 200 Z"/>
  <path opacity="0.85" d="M1369.18 200 C1368.61 143.54 1368.37 80.02 1369.23 58.85 C1370.09 80.02 1374.37 143.54 1374.94 200 Z"/>
  <path d="M376.93 200 C373.08 143.64 358.46 80.24 358.8 59.1 C359.14 80.24 375.32 143.64 379.17 200 Z"/>
  <path opacity="0.65" d="M135.57 200 C137.75 143.75 148.38 80.46 149.21 59.37 C150.04 80.46 143.25 143.75 141.07 200 Z"/>
  <path opacity="0.85" d="M1311.41 200 C1314.61 144.45 1328.45 81.97 1328.9 61.14 C1329.35 81.97 1317.63 144.45 1314.43 200 Z"/>
  <path opacity="0.85" d="M1254.9 200 C1251.15 144.46 1236.94 81.98 1237.27 61.15 C1237.6 81.98 1253.36 144.46 1257.11 200 Z"/>
  <path d="M880.41 200 C877.97 144.58 869.47 82.22 870.02 61.44 C870.57 82.22 881.62 144.58 884.06 200 Z"/>
  <path opacity="0.65" d="M1320.45 200 C1320.39 144.61 1321.18 82.31 1321.62 61.54 C1322.06 82.31 1323.34 144.61 1323.4 200 Z"/>
  <path opacity="0.65" d="M944.45 200 C945.73 144.72 952.2 82.52 952.77 61.79 C953.34 82.52 949.55 144.72 948.27 200 Z"/>
  <path opacity="0.85" d="M808.02 200 C810.85 144.76 824.14 82.61 824.97 61.9 C825.8 82.61 816.41 144.76 813.58 200 Z"/>
  <path opacity="0.65" d="M667.59 200 C670.79 145.78 684.52 84.78 684.93 64.45 C685.34 84.78 673.49 145.78 670.29 200 Z"/>
  <path opacity="0.85" d="M1322.69 200 C1326.33 145.9 1342.92 85.04 1343.79 64.75 C1344.66 85.04 1332.16 145.9 1328.52 200 Z"/>
  <path opacity="0.65" d="M1016.7 200 C1017.07 145.99 1020.26 85.24 1020.98 64.99 C1021.7 85.24 1021.91 145.99 1021.54 200 Z"/>
  <path opacity="0.85" d="M244.46 200 C242.8 146.34 237.1 85.98 237.5 65.86 C237.9 85.98 245.48 146.34 247.14 200 Z"/>
  <path opacity="0.45" d="M964.21 200 C968.12 146.37 985.56 86.03 986.33 65.92 C987.1 86.03 973.28 146.37 969.37 200 Z"/>
  <path d="M258.53 200 C255.32 146.39 244.21 86.08 244.94 65.98 C245.67 86.08 260.21 146.39 263.42 200 Z"/>
  <path opacity="0.45" d="M319.61 200 C320.43 146.79 325.48 86.93 326.25 66.98 C327.02 86.93 325.54 146.79 324.72 200 Z"/>
  <path opacity="0.85" d="M347.95 200 C349.3 146.9 355.47 87.17 355.8 67.26 C356.13 87.17 351.52 146.9 350.17 200 Z"/>
  <path opacity="0.85" d="M399.04 200 C400.22 147.12 406.37 87.64 406.99 67.81 C407.61 87.64 404.34 147.12 403.16 200 Z"/>
  <path opacity="0.65" d="M1069.45 200 C1067.77 147.12 1062.43 87.64 1063.02 67.81 C1063.61 87.64 1071.7 147.12 1073.38 200 Z"/>
  <path opacity="0.85" d="M310.84 200 C314.72 147.26 331.46 87.93 331.99 68.15 C332.52 87.93 318.27 147.26 314.39 200 Z"/>
  <path opacity="0.45" d="M423.53 200 C421.17 147.8 413.6 89.08 414.4 69.5 C415.2 89.08 426.5 147.8 428.86 200 Z"/>
  <path opacity="0.45" d="M718.27 200 C714.77 147.88 702.86 89.24 703.74 69.7 C704.62 89.24 720.66 147.88 724.16 200 Z"/>
  <path d="M1099.46 200 C1102.81 148.36 1116.94 90.26 1117.25 70.89 C1117.56 90.26 1104.86 148.36 1101.51 200 Z"/>
  <path d="M820.6 200 C818.01 148.38 809.51 90.3 810.29 70.94 C811.07 90.3 823.23 148.38 825.82 200 Z"/>
  <path opacity="0.85" d="M505.92 200 C505.53 148.38 505.75 90.31 506.51 70.95 C507.27 90.31 510.59 148.38 510.98 200 Z"/>
  <path d="M310.43 200 C312.01 148.41 320.25 90.37 321.09 71.03 C321.93 90.37 317.58 148.41 316 200 Z"/>
  <path d="M603.54 200 C603.12 148.61 602.63 90.8 603.13 71.53 C603.63 90.8 606.47 148.61 606.89 200 Z"/>
  <path d="M305.15 200 C307.11 148.69 316.95 90.98 317.8 71.74 C318.65 90.98 312.8 148.69 310.84 200 Z"/>
  <path d="M1058.52 200 C1061.1 148.78 1072.34 91.16 1072.75 71.95 C1073.16 91.16 1063.82 148.78 1061.24 200 Z"/>
  <path opacity="0.45" d="M1426.61 200 C1429.49 148.9 1442.09 91.41 1442.55 72.25 C1443.01 91.41 1432.56 148.9 1429.68 200 Z"/>
  <path opacity="0.85" d="M1042.7 200 C1043.6 149.09 1049.07 91.81 1049.86 72.72 C1050.65 91.81 1048.89 149.09 1047.99 200 Z"/>
  <path d="M1100.2 200 C1101.63 149.11 1108.91 91.85 1109.58 72.76 C1110.25 91.85 1106.09 149.11 1104.66 200 Z"/>
  <path opacity="0.85" d="M821.43 200 C821.23 149.25 821.82 92.16 822.41 73.13 C823 92.16 825.16 149.25 825.36 200 Z"/>
  <path opacity="0.85" d="M938.66 200 C941.96 149.25 956.75 92.17 957.43 73.14 C958.11 92.17 946.46 149.25 943.16 200 Z"/>
  <path opacity="0.45" d="M1356.5 200 C1355.61 149.5 1353.57 92.68 1354.23 73.74 C1354.89 92.68 1359.99 149.5 1360.88 200 Z"/>
  <path opacity="0.85" d="M1165.93 200 C1164.06 149.53 1158.35 92.75 1159.11 73.83 C1159.87 92.75 1169.11 149.53 1170.98 200 Z"/>
  <path opacity="0.45" d="M271.69 200 C269.2 149.55 260.82 92.79 261.51 73.87 C262.2 92.79 273.77 149.55 276.26 200 Z"/>
  <path opacity="0.45" d="M1304.12 200 C1300.91 149.85 1289.37 93.44 1289.93 74.63 C1290.49 93.44 1304.63 149.85 1307.84 200 Z"/>
  <path opacity="0.65" d="M1341.81 200 C1342.7 150.28 1347.4 94.35 1347.9 75.71 C1348.4 94.35 1346.01 150.28 1345.12 200 Z"/>
  <path d="M1302.97 200 C1306.58 150.39 1322.84 94.57 1323.62 75.97 C1324.4 94.57 1311.75 150.39 1308.14 200 Z"/>
  <path d="M311.28 200 C308.75 150.65 300.18 95.12 300.84 76.61 C301.5 95.12 313.16 150.65 315.69 200 Z"/>
  <path opacity="0.85" d="M887.65 200 C887.46 150.65 887.88 95.14 888.39 76.63 C888.9 95.14 890.88 150.65 891.07 200 Z"/>
  <path d="M1078.64 200 C1079.38 150.71 1083.75 95.26 1084.36 76.78 C1084.97 95.26 1083.46 150.71 1082.72 200 Z"/>
  <path opacity="0.85" d="M256.82 200 C259.29 150.74 271.06 95.31 271.87 76.84 C272.68 95.31 264.66 150.74 262.19 200 Z"/>
  <path opacity="0.85" d="M1141.42 200 C1139.44 150.89 1132.83 95.64 1133.4 77.22 C1133.97 95.64 1143.22 150.89 1145.2 200 Z"/>
  <path d="M760.81 200 C762.2 150.93 769.35 95.72 770.02 77.32 C770.69 95.72 766.68 150.93 765.29 200 Z"/>
  <path opacity="0.65" d="M912.49 200 C914.85 151.05 925.47 95.98 925.97 77.62 C926.47 95.98 918.18 151.05 915.82 200 Z"/>
  <path opacity="0.85" d="M939.35 200 C937.58 151.19 931.54 96.27 931.98 77.97 C932.42 96.27 940.54 151.19 942.31 200 Z"/>
  <path opacity="0.65" d="M102.41 200 C100.3 151.42 93.64 96.78 94.42 78.56 C95.2 96.78 105.47 151.42 107.58 200 Z"/>
  <path d="M1442.34 200 C1441.35 151.69 1438.75 97.35 1439.34 79.23 C1439.93 97.35 1445.27 151.69 1446.26 200 Z"/>
  <path opacity="0.65" d="M573.13 200 C569.74 151.85 557.77 97.69 558.44 79.64 C559.11 97.69 574.22 151.85 577.61 200 Z"/>
  <path d="M740.5 200 C742.53 151.9 751.96 97.79 752.53 79.75 C753.1 97.79 746.29 151.9 744.26 200 Z"/>
  <path d="M1431.15 200 C1432.81 152.03 1441.38 98.05 1442.21 80.06 C1443.04 98.05 1438.33 152.03 1436.67 200 Z"/>
  <path opacity="0.65" d="M924.35 200 C920.71 152.27 908.14 98.58 908.98 80.68 C909.82 98.58 926.32 152.27 929.96 200 Z"/>
  <path opacity="0.85" d="M451.84 200 C449.85 152.88 443.22 99.86 443.8 82.19 C444.38 99.86 453.71 152.88 455.7 200 Z"/>
  <path opacity="0.65" d="M429.5 200 C426.28 152.93 414.77 99.98 415.36 82.33 C415.95 99.98 430.24 152.93 433.46 200 Z"/>
  <path opacity="0.85" d="M997.5 200 C997.25 153.39 997.69 100.95 998.3 83.47 C998.91 100.95 1001.32 153.39 1001.57 200 Z"/>
  <path opacity="0.65" d="M1011.04 200 C1011.97 153.43 1016.96 101.04 1017.51 83.58 C1018.06 101.04 1015.65 153.43 1014.72 200 Z"/>
  <path opacity="0.65" d="M1493.11 200 C1491.9 153.68 1488.76 101.58 1489.5 84.21 C1490.24 101.58 1496.8 153.68 1498.01 200 Z"/>
  <path opacity="0.45" d="M963.56 200 C964.33 153.97 969.22 102.19 970 84.93 C970.78 102.19 969.51 153.97 968.74 200 Z"/>
  <path d="M129.06 200 C132.6 154.13 148.77 102.53 149.64 85.33 C150.51 102.53 138.38 154.13 134.84 200 Z"/>
  <path opacity="0.45" d="M256.89 200 C256.98 154.17 259.18 102.61 259.96 85.42 C260.74 102.61 262.17 154.17 262.08 200 Z"/>
  <path d="M606.26 200 C608.05 154.26 616.43 102.8 616.94 85.65 C617.45 102.8 611.46 154.26 609.67 200 Z"/>
  <path opacity="0.45" d="M158.85 200 C157.1 154.43 150.86 103.18 151.19 86.09 C151.52 103.18 159.32 154.43 161.07 200 Z"/>
  <path opacity="0.45" d="M1308.96 200 C1312.92 155.03 1329.89 104.44 1330.38 87.58 C1330.87 104.44 1316.18 155.03 1312.22 200 Z"/>
  <path opacity="0.65" d="M1048.09 200 C1045.4 155.23 1035.64 104.86 1036.07 88.07 C1036.5 104.86 1048.29 155.23 1050.98 200 Z"/>
  <path opacity="0.45" d="M366.25 200 C364.07 155.28 356.38 104.98 356.84 88.21 C357.3 104.98 367.1 155.28 369.28 200 Z"/>
  <path opacity="0.65" d="M847.26 200 C846.19 155.43 843.84 105.28 844.66 88.56 C845.48 105.28 851.65 155.43 852.72 200 Z"/>
  <path d="M1091.12 200 C1095.1 155.48 1112.51 105.4 1113.15 88.7 C1113.79 105.4 1099.39 155.48 1095.41 200 Z"/>
  <path opacity="0.65" d="M332.99 200 C335.14 155.61 345.24 105.67 345.88 89.02 C346.52 105.67 339.39 155.61 337.24 200 Z"/>
  <path opacity="0.65" d="M988.84 200 C990.79 155.65 1000.61 105.75 1001.47 89.12 C1002.33 105.75 996.54 155.65 994.59 200 Z"/>
  <path d="M662.5 200 C659.04 155.73 647.2 105.93 648.07 89.33 C648.94 105.93 664.82 155.73 668.28 200 Z"/>
  <path opacity="0.85" d="M1404.95 200 C1404.93 156.21 1406.8 106.95 1407.64 90.53 C1408.48 106.95 1410.53 156.21 1410.55 200 Z"/>
  <path opacity="0.85" d="M457.37 200 C455.11 156.61 447.47 107.79 448.08 91.52 C448.69 107.79 459.16 156.61 461.42 200 Z"/>
  <path opacity="0.85" d="M999.15 200 C1002.17 156.79 1016.18 108.17 1017 91.97 C1017.82 108.17 1007.63 156.79 1004.61 200 Z"/>
  <path opacity="0.45" d="M1099.47 200 C1097.11 157.45 1089.46 109.58 1090.24 93.62 C1091.02 109.58 1102.3 157.45 1104.66 200 Z"/>
  <path opacity="0.45" d="M356.83 200 C357.91 157.54 363.82 109.78 364.49 93.86 C365.16 109.78 362.39 157.54 361.31 200 Z"/>
  <path d="M396.25 200 C394.3 158.1 388.34 110.96 389.13 95.25 C389.92 110.96 399.6 158.1 401.55 200 Z"/>
  <path opacity="0.85" d="M49.5 200 C48.91 158.18 48.45 111.14 49.27 95.46 C50.09 111.14 54.36 158.18 54.95 200 Z"/>
  <path opacity="0.45" d="M596.51 200 C596.59 158.23 598.18 111.24 598.72 95.58 C599.26 111.24 600.19 158.23 600.11 200 Z"/>
  <path opacity="0.65" d="M165.38 200 C165.23 158.37 165.37 111.54 165.68 95.93 C165.99 111.54 167.3 158.37 167.45 200 Z"/>
  <path opacity="0.65" d="M1465.9 200 C1463.54 159.22 1455.96 113.34 1456.76 98.05 C1457.56 113.34 1468.86 159.22 1471.22 200 Z"/>
  <path opacity="0.65" d="M1334.4 200 C1337.67 159.4 1352.44 113.73 1353.16 98.5 C1353.88 113.73 1342.45 159.4 1339.18 200 Z"/>
  <path d="M869.12 200 C870.31 159.5 876.96 113.95 877.76 98.76 C878.56 113.95 875.67 159.5 874.48 200 Z"/>
  <path opacity="0.45" d="M1317.98 200 C1318.24 159.62 1320.57 114.19 1321.12 99.05 C1321.67 114.19 1321.9 159.62 1321.64 200 Z"/>
  <path opacity="0.45" d="M644.34 200 C645.67 159.71 652.52 114.38 653.18 99.27 C653.84 114.38 650.06 159.71 648.73 200 Z"/>
  <path opacity="0.45" d="M484.98 200 C486.14 159.84 492 114.65 492.52 99.59 C493.04 114.65 489.63 159.84 488.47 200 Z"/>
  <path opacity="0.65" d="M1452.67 200 C1455.86 160.19 1469.77 115.4 1470.28 100.47 C1470.79 115.4 1459.23 160.19 1456.04 200 Z"/>
  <path d="M1404.05 200 C1406.81 160.24 1419.4 115.51 1420.08 100.6 C1420.76 115.51 1411.31 160.24 1408.55 200 Z"/>
  <path opacity="0.85" d="M882.48 200 C880.87 160.48 875.46 116.02 875.9 101.2 C876.34 116.02 883.81 160.48 885.42 200 Z"/>
  <path opacity="0.85" d="M503.25 200 C505.09 160.62 513.96 116.33 514.62 101.56 C515.28 116.33 509.48 160.62 507.64 200 Z"/>
  <path opacity="0.65" d="M1066.69 200 C1066.52 160.75 1066.56 116.6 1066.87 101.88 C1067.18 116.6 1068.61 160.75 1068.78 200 Z"/>
  <path opacity="0.45" d="M356.7 200 C354.64 160.8 347.62 116.71 348.14 102.01 C348.66 116.71 358.1 160.8 360.16 200 Z"/>
  <path opacity="0.85" d="M1414.17 200 C1414.25 161.05 1416.17 117.23 1416.85 102.62 C1417.53 117.23 1418.76 161.05 1418.68 200 Z"/>
  <path opacity="0.65" d="M635.92 200 C633.1 161.54 622.99 118.28 623.49 103.86 C623.99 118.28 636.42 161.54 639.24 200 Z"/>
  <path opacity="0.85" d="M1249.74 200 C1251.31 161.75 1258.75 118.72 1259.24 104.37 C1259.73 118.72 1254.59 161.75 1253.02 200 Z"/>
  <path opacity="0.45" d="M663.66 200 C660.6 162.17 649.14 119.61 649.47 105.42 C649.8 119.61 662.8 162.17 665.86 200 Z"/>
  <path opacity="0.65" d="M645.75 200 C642.56 162.24 631.24 119.77 631.87 105.61 C632.5 119.77 646.74 162.24 649.93 200 Z"/>
  <path opacity="0.85" d="M1055.91 200 C1054.11 162.51 1048.62 120.34 1049.35 106.28 C1050.08 120.34 1058.94 162.51 1060.74 200 Z"/>
  <path d="M947.84 200 C945.11 162.81 935.93 120.98 936.67 107.03 C937.41 120.98 950.06 162.81 952.79 200 Z"/>
  <path opacity="0.85" d="M1434.12 200 C1430.5 162.96 1417.51 121.3 1418.16 107.41 C1418.81 121.3 1434.82 162.96 1438.44 200 Z"/>
  <path opacity="0.65" d="M219.34 200 C215.89 163.06 203.3 121.5 203.82 107.65 C204.34 121.5 219.33 163.06 222.78 200 Z"/>
  <path opacity="0.45" d="M1058.49 200 C1061.88 163.08 1077.14 121.55 1077.88 107.71 C1078.62 121.55 1066.81 163.08 1063.42 200 Z"/>
  <path d="M627.69 200 C630.18 163.1 640.89 121.6 641.21 107.76 C641.53 121.6 632.29 163.1 629.8 200 Z"/>
  <path opacity="0.85" d="M794.14 200 C790.37 163.29 777.07 122 777.82 108.23 C778.57 122 795.4 163.29 799.17 200 Z"/>
  <path opacity="0.45" d="M922.18 200 C925.32 163.5 939.47 122.45 940.15 108.76 C940.83 122.45 929.86 163.5 926.72 200 Z"/>
  <path opacity="0.45" d="M1440.19 200 C1441.24 163.51 1446.81 122.46 1447.4 108.78 C1447.99 122.46 1445.19 163.51 1444.14 200 Z"/>
  <path opacity="0.45" d="M552.89 200 C556.09 163.54 569.7 122.52 570.05 108.85 C570.4 122.52 558.4 163.54 555.2 200 Z"/>
  <path opacity="0.85" d="M688.29 200 C687.24 163.93 684.13 123.36 684.61 109.83 C685.09 123.36 690.43 163.93 691.48 200 Z"/>
  <path opacity="0.45" d="M435.11 200 C432.01 164.16 421.14 123.85 421.79 110.41 C422.44 123.85 436.35 164.16 439.45 200 Z"/>
  <path opacity="0.65" d="M142.69 200 C144.07 164.23 150.36 123.99 150.7 110.58 C151.04 123.99 146.31 164.23 144.93 200 Z"/>
  <path opacity="0.85" d="M756.94 200 C758.45 164.24 765.49 124.01 765.93 110.6 C766.37 124.01 761.36 164.24 759.85 200 Z"/>
  <path opacity="0.65" d="M353.92 200 C352.49 164.44 348.81 124.44 349.69 111.1 C350.57 124.44 358.36 164.44 359.79 200 Z"/>
  <path d="M982.79 200 C982.71 164.79 983.91 125.17 984.55 111.97 C985.19 125.17 986.99 164.79 987.07 200 Z"/>
  <path opacity="0.85" d="M1065.41 200 C1068.31 164.94 1081.68 125.49 1082.44 112.34 C1083.2 125.49 1073.35 164.94 1070.45 200 Z"/>
  <path opacity="0.65" d="M1275.29 200 C1276.94 165.25 1285.49 126.14 1286.32 113.11 C1287.15 126.14 1282.49 165.25 1280.84 200 Z"/>
  <path opacity="0.85" d="M63.14 200 C61.15 165.59 54.97 126.87 55.74 113.97 C56.51 126.87 66.29 165.59 68.28 200 Z"/>
  <path opacity="0.45" d="M48.05 200 C45.89 165.59 38.43 126.88 38.93 113.98 C39.43 126.88 49.26 165.59 51.42 200 Z"/>
  <path opacity="0.85" d="M1089.07 200 C1086.45 165.71 1076.92 127.14 1077.32 114.28 C1077.72 127.14 1089.13 165.71 1091.75 200 Z"/>
  <path opacity="0.85" d="M1462.9 200 C1460.65 166.02 1452.82 127.8 1453.32 115.06 C1453.82 127.8 1463.96 166.02 1466.21 200 Z"/>
  <path opacity="0.65" d="M83.36 200 C84.98 166.22 92.69 128.21 93.21 115.54 C93.73 128.21 88.46 166.22 86.84 200 Z"/>
  <path d="M622.58 200 C625.92 166.86 640.85 129.58 641.53 117.15 C642.21 129.58 630.45 166.86 627.11 200 Z"/>
  <path opacity="0.65" d="M365.47 200 C363.9 167.43 359.22 130.78 359.91 118.57 C360.6 130.78 368.48 167.43 370.05 200 Z"/>
  <path opacity="0.45" d="M454.11 200 C452.25 167.43 445.94 130.8 446.43 118.59 C446.92 130.8 455.53 167.43 457.39 200 Z"/>
  <path opacity="0.85" d="M1286.05 200 C1284.32 167.75 1278.83 131.46 1279.43 119.37 C1280.03 131.46 1288.35 167.75 1290.08 200 Z"/>
  <path opacity="0.45" d="M1342.17 200 C1338.76 167.81 1327.03 131.59 1327.84 119.52 C1328.65 131.59 1344.19 167.81 1347.6 200 Z"/>
  <path d="M1173.59 200 C1173.2 168.62 1173.12 133.31 1173.76 121.54 C1174.4 133.31 1177.45 168.62 1177.84 200 Z"/>
  <path opacity="0.65" d="M805.84 200 C801.89 168.69 788.12 133.47 788.99 121.73 C789.86 133.47 807.66 168.69 811.61 200 Z"/>
  <path opacity="0.45" d="M1105.02 200 C1107.79 168.85 1120.59 133.8 1121.32 122.12 C1122.05 133.8 1112.65 168.85 1109.88 200 Z"/>
  <path opacity="0.45" d="M1047.35 200 C1048.66 168.89 1054.89 133.89 1055.32 122.22 C1055.75 133.89 1051.51 168.89 1050.2 200 Z"/>
  <path opacity="0.45" d="M855.48 200 C859.03 168.91 874.96 133.94 875.71 122.28 C876.46 133.94 864.03 168.91 860.48 200 Z"/>
  <path opacity="0.45" d="M961.2 200 C958.18 168.95 947.05 134.02 947.46 122.38 C947.87 134.02 960.93 168.95 963.95 200 Z"/>
  <path opacity="0.65" d="M1417.95 200 C1415.54 168.96 1407.58 134.05 1408.31 122.41 C1409.04 134.05 1420.4 168.96 1422.81 200 Z"/>
  <path opacity="0.85" d="M1272.25 200 C1269.07 169.18 1257.49 134.5 1257.98 122.94 C1258.47 134.5 1272.34 169.18 1275.52 200 Z"/>
  <path opacity="0.85" d="M567.13 200 C570.38 169.3 585.38 134.77 586.24 123.26 C587.1 134.77 576.14 169.3 572.89 200 Z"/>
  <path opacity="0.85" d="M577.28 200 C577.9 169.49 582.12 135.17 582.87 123.73 C583.62 135.17 582.92 169.49 582.3 200 Z"/>
  <path d="M203.09 200 C206.08 169.55 219.2 135.29 219.7 123.87 C220.2 135.29 209.4 169.55 206.41 200 Z"/>
  <path d="M791.03 200 C791.79 169.64 796.91 135.49 797.81 124.1 C798.71 135.49 797.78 169.64 797.02 200 Z"/>
  <path opacity="0.45" d="M336.69 200 C337.34 169.79 341.09 135.81 341.59 124.48 C342.09 135.81 340.66 169.79 340.01 200 Z"/>
  <path d="M555.03 200 C553.54 169.82 549.33 135.88 550.08 124.56 C550.83 135.88 558.54 169.82 560.03 200 Z"/>
  <path opacity="0.85" d="M1002.5 200 C1004.06 169.84 1011.31 135.91 1011.74 124.6 C1012.17 135.91 1006.95 169.84 1005.39 200 Z"/>
  <path d="M585.69 200 C589.5 169.86 606.28 135.95 606.93 124.65 C607.58 135.95 593.86 169.86 590.05 200 Z"/>
  <path d="M775.71 200 C772.49 169.94 760.37 136.13 760.7 124.86 C761.03 136.13 774.67 169.94 777.89 200 Z"/>
  <path opacity="0.65" d="M606.14 200 C609.35 170.26 623.44 136.79 623.97 125.64 C624.5 136.79 612.86 170.26 609.65 200 Z"/>
  <path d="M642.43 200 C638.82 170.73 625.12 137.8 625.45 126.82 C625.78 137.8 640.99 170.73 644.6 200 Z"/>
  <path opacity="0.65" d="M1335.29 200 C1337.63 170.81 1348.41 137.97 1349.01 127.02 C1349.61 137.97 1341.66 170.81 1339.32 200 Z"/>
  <path opacity="0.45" d="M1374.76 200 C1373.32 170.95 1368.58 138.28 1369.02 127.39 C1369.46 138.28 1376.25 170.95 1377.69 200 Z"/>
  <path d="M201.23 200 C204.78 171.11 219.67 138.6 219.97 127.77 C220.27 138.6 206.8 171.11 203.25 200 Z"/>
  <path opacity="0.65" d="M725.83 200 C725.5 171.19 725.97 138.77 726.74 127.97 C727.51 138.77 730.61 171.19 730.94 200 Z"/>
  <path opacity="0.45" d="M1339.86 200 C1340.81 171.2 1345.94 138.81 1346.51 128.01 C1347.08 138.81 1344.61 171.2 1343.66 200 Z"/>
  <path opacity="0.45" d="M445.26 200 C442.78 171.22 433.57 138.83 433.88 128.04 C434.19 138.83 444.86 171.22 447.34 200 Z"/>
  <path opacity="0.45" d="M125.68 200 C124.48 171.42 121 139.28 121.57 128.56 C122.14 139.28 128.3 171.42 129.5 200 Z"/>
  <path opacity="0.85" d="M555.06 200 C555.03 171.87 556.23 140.23 556.81 129.68 C557.39 140.23 558.88 171.87 558.91 200 Z"/>
  <path opacity="0.45" d="M1396.46 200 C1392.55 171.87 1377.91 140.23 1378.35 129.68 C1378.79 140.23 1395.46 171.87 1399.37 200 Z"/>
  <path opacity="0.85" d="M740.41 200 C736.6 172 723.11 140.51 723.86 130.01 C724.61 140.51 741.58 172 745.39 200 Z"/>
  <path opacity="0.85" d="M1186.86 200 C1189.77 172.12 1202.65 140.75 1203.19 130.29 C1203.73 140.75 1193.34 172.12 1190.43 200 Z"/>
  <path opacity="0.45" d="M922.44 200 C923.48 172.18 928.87 140.89 929.4 130.46 C929.93 140.89 927.03 172.18 925.99 200 Z"/>
  <path d="M141.67 200 C139.17 172.2 130.38 140.92 130.9 130.49 C131.42 140.92 142.63 172.2 145.13 200 Z"/>
  <path opacity="0.45" d="M130.18 200 C127.67 172.41 119.1 141.37 119.74 131.03 C120.38 141.37 131.93 172.41 134.44 200 Z"/>
  <path opacity="0.85" d="M488.82 200 C490.01 172.49 495.51 141.54 495.82 131.23 C496.13 141.54 492.08 172.49 490.89 200 Z"/>
  <path opacity="0.85" d="M1251.18 200 C1253.89 172.88 1265.78 142.37 1266.23 132.2 C1266.68 142.37 1256.86 172.88 1254.15 200 Z"/>
  <path opacity="0.65" d="M763.78 200 C760.95 172.99 751.22 142.61 751.91 132.48 C752.6 142.61 765.55 172.99 768.38 200 Z"/>
  <path d="M334.7 200 C338.21 173.84 353.54 144.41 354.1 134.6 C354.66 144.41 341.91 173.84 338.4 200 Z"/>
  <path opacity="0.45" d="M1383.11 200 C1383.08 174.19 1384.94 145.16 1385.78 135.48 C1386.62 145.16 1388.7 174.19 1388.73 200 Z"/>
  <path opacity="0.65" d="M1005.09 200 C1006.17 174.55 1012.07 145.92 1012.75 136.38 C1013.43 145.92 1010.7 174.55 1009.62 200 Z"/>
  <path opacity="0.65" d="M54.82 200 C56.69 174.63 65.97 146.08 66.75 136.57 C67.53 146.08 61.88 174.63 60.01 200 Z"/>
  <path d="M1215.57 200 C1219.51 174.65 1236.2 146.12 1236.6 136.61 C1237 146.12 1222.14 174.65 1218.2 200 Z"/>
  <path opacity="0.65" d="M110.14 200 C114.09 174.7 130.73 146.24 131.08 136.75 C131.43 146.24 116.44 174.7 112.49 200 Z"/>
  <path opacity="0.65" d="M1434.68 200 C1437.69 174.83 1451.56 146.53 1452.35 137.09 C1453.14 146.53 1442.96 174.83 1439.95 200 Z"/>
  <path opacity="0.85" d="M795.67 200 C798.69 174.84 811.75 146.53 812.17 137.1 C812.59 146.53 801.47 174.84 798.45 200 Z"/>
  <path opacity="0.65" d="M547.59 200 C548.77 174.87 554.22 146.59 554.53 137.17 C554.84 146.59 550.84 174.87 549.66 200 Z"/>
  <path d="M1481.24 200 C1478.53 174.95 1469.18 146.77 1469.83 137.38 C1470.48 146.77 1482.84 174.95 1485.55 200 Z"/>
  <path opacity="0.85" d="M756.34 200 C758.52 175.05 768.13 146.99 768.51 137.63 C768.89 146.99 761.07 175.05 758.89 200 Z"/>
  <path opacity="0.45" d="M815.16 200 C815.16 175.65 816.52 148.25 817.1 139.12 C817.68 148.25 819.04 175.65 819.04 200 Z"/>
  <path opacity="0.65" d="M361.39 200 C359.79 175.79 355.2 148.57 355.98 139.49 C356.76 148.57 364.97 175.79 366.57 200 Z"/>
  <path d="M28.36 200 C24.71 176.21 11.92 149.44 12.68 140.52 C13.44 149.44 29.8 176.21 33.45 200 Z"/>
  <path opacity="0.85" d="M9.57 200 C9.7 176.27 12.18 149.56 13.03 140.66 C13.88 149.56 15.34 176.27 15.21 200 Z"/>
  <path opacity="0.65" d="M530.07 200 C533.66 176.29 550.07 149.61 550.94 140.72 C551.81 149.61 539.49 176.29 535.9 200 Z"/>
  <path opacity="0.65" d="M543.17 200 C543.22 176.42 544.4 149.89 544.82 141.05 C545.24 149.89 546 176.42 545.95 200 Z"/>
  <path opacity="0.85" d="M1282.28 200 C1285.75 176.63 1301.19 150.34 1301.85 141.58 C1302.51 150.34 1290.17 176.63 1286.7 200 Z"/>
  <path opacity="0.85" d="M29.63 200 C28.69 176.85 26.19 150.81 26.73 142.13 C27.27 150.81 32.26 176.85 33.2 200 Z"/>
  <path opacity="0.65" d="M673.77 200 C674.22 176.92 676.79 150.95 677.11 142.29 C677.43 150.95 676.37 176.92 675.92 200 Z"/>
  <path opacity="0.45" d="M1421.86 200 C1425.22 177.06 1439.58 151.25 1439.98 142.65 C1440.38 151.25 1427.9 177.06 1424.54 200 Z"/>
  <path opacity="0.85" d="M408.37 200 C406.7 177.14 400.91 151.42 401.29 142.85 C401.67 151.42 409.26 177.14 410.93 200 Z"/>
  <path d="M1144.07 200 C1141.28 177.38 1131.45 151.93 1132.02 143.45 C1132.59 151.93 1145.09 177.38 1147.88 200 Z"/>
  <path d="M185.74 200 C186.36 177.46 189.98 152.09 190.47 143.64 C190.96 152.09 189.62 177.46 189 200 Z"/>
  <path d="M559.86 200 C558.81 177.49 556.08 152.16 556.71 143.72 C557.34 152.16 563.04 177.49 564.09 200 Z"/>
  <path d="M1363.38 200 C1363.57 177.92 1365.04 153.08 1365.34 144.8 C1365.64 153.08 1365.57 177.92 1365.38 200 Z"/>
  <path d="M299.15 200 C296.7 177.94 287.72 153.12 288.07 144.85 C288.42 153.12 299.01 177.94 301.46 200 Z"/>
  <path d="M833.75 200 C836.23 177.98 847.16 153.21 847.58 144.95 C848 153.21 839.06 177.98 836.58 200 Z"/>
  <path opacity="0.65" d="M1198.33 200 C1200.44 178.24 1210.31 153.75 1210.92 145.59 C1211.53 153.75 1204.5 178.24 1202.39 200 Z"/>
  <path opacity="0.45" d="M173.53 200 C170.42 178.31 159.56 153.91 160.24 145.78 C160.92 153.91 174.97 178.31 178.08 200 Z"/>
  <path opacity="0.85" d="M838.55 200 C837.72 178.67 836.48 154.68 837.37 146.68 C838.26 154.68 843.63 178.67 844.46 200 Z"/>
  <path opacity="0.65" d="M755.7 200 C756.91 178.73 763.83 154.79 764.72 146.81 C765.61 154.79 762.81 178.73 761.6 200 Z"/>
  <path opacity="0.85" d="M611.79 200 C613.47 179.68 621.14 156.81 621.54 149.19 C621.94 156.81 616.16 179.68 614.48 200 Z"/>
  <path opacity="0.45" d="M1232.74 200 C1235.47 179.9 1247.4 157.29 1247.83 149.75 C1248.26 157.29 1238.32 179.9 1235.59 200 Z"/>
  <path opacity="0.45" d="M1115.38 200 C1114.63 179.9 1113.2 157.29 1113.88 149.75 C1114.56 157.29 1119.17 179.9 1119.92 200 Z"/>
  <path d="M1341.58 200 C1338.06 179.99 1325.78 157.48 1326.54 149.98 C1327.3 157.48 1343.14 179.99 1346.66 200 Z"/>
</svg>
